<svg xmlns="http://www.w3.org/2000/svg" style="display:none;">
    <symbol id="arrowdown_icon" viewBox="0 0 24 24">
        <path d="M17.957 10.457a1 1 0 0 0-1.414-1.414L12 13.586 7.457 9.043a1 1 0 0 0-1.414 1.414l5.25 5.25a1 1 0 0 0 1.414 0l5.25-5.25Z"/>
    </symbol>
    <symbol id="checkmark_icon" viewBox="0 0 24 24">
        <path  d="M21.046 5.955c.439.439.439 1.151 0 1.59l-9.538 9.539a1.425 1.425 0 0 1-2.016 0l-4.288-4.288a1.125 1.125 0 0 1 1.591-1.591l3.705 3.704 8.954-8.954c.44-.44 1.152-.44 1.591 0Z"></path>
    </symbol>
    <symbol id="cycle_icon" viewBox="0 0 24 24">
        <path d="M13.25 3a1 1 0 0 1 1-1h4.583a1 1 0 1 1 0 2h-1.538c.47.42 1.018.933 1.656 1.559a8.996 8.996 0 0 1 0 12.882 9.256 9.256 0 0 1-4.484 2.434 1 1 0 0 1-.434-1.952 7.254 7.254 0 0 0 3.517-1.909 6.996 6.996 0 0 0 0-10.028c-.999-.98-1.748-1.652-2.3-2.11V7.5a1 1 0 1 1-2 0V3ZM10.726 3.884a1 1 0 0 1-.759 1.193A7.255 7.255 0 0 0 6.45 6.986a6.996 6.996 0 0 0 0 10.028c.999.98 1.748 1.652 2.3 2.11V16.5a1 1 0 1 1 2 0V21a1 1 0 0 1-1 1H5.167a1 1 0 1 1 0-2h1.538c-.47-.42-1.018-.933-1.656-1.559a8.996 8.996 0 0 1 0-12.882 9.255 9.255 0 0 1 4.484-2.434 1 1 0 0 1 1.193.759Z"></path>
    </symbol>
    <symbol id="argentinaFlag_icon" viewBox="0 0 24 24">

    </symbol>
    <symbol id="globe_icon" viewBox="0 0 24 24">
        <path fill-rule="evenodd" d="M12 22.5c5.799 0 10.5-4.701 10.5-10.5S17.799 1.5 12 1.5 1.5 6.201 1.5 12 6.201 22.5 12 22.5Zm-1.014-11.497V4.63C9.082 6.602 8.043 8.81 7.803 11.01l3.181-.007Zm0 2-3.18.006c.243 2.194 1.282 4.394 3.18 6.36v-6.366Zm-5.193-1.99C6.007 8.6 7.003 6.248 8.735 4.15a8.508 8.508 0 0 0-5.179 6.867l2.237-.004ZM3.56 13.017l2.236-.004c.218 2.404 1.213 4.747 2.94 6.837a8.508 8.508 0 0 1-5.176-6.833ZM12.985 13l3.228-.006c-.241 2.217-1.296 4.441-3.228 6.424V13Zm3.227-2.006L12.986 11V4.582c1.928 1.98 2.981 4.198 3.226 6.411Zm2.012 1.996c-.214 2.408-1.207 4.756-2.933 6.85a8.508 8.508 0 0 0 5.152-6.854l-2.22.004Zm2.216-2.004-2.218.004c-.218-2.4-1.21-4.74-2.93-6.828a8.508 8.508 0 0 1 5.148 6.824Z" clip-rule="evenodd"></path>
    </symbol>
    <symbol id="hostingerLogo_icon" viewBox="0 0 150 30">
        <path d="M45.1114 8.89822H47.9253V21.3612H45.1114V16.0739H40.3857V21.3612H37.5718V8.89822H40.3857V13.6637H45.1114V8.89822Z"></path>
        <path d="M54.4949 15.1209C54.4949 15.732 54.5698 16.2835 54.7201 16.7752C54.8704 17.267 55.0871 17.6895 55.3698 18.0431C55.6518 18.3972 55.9978 18.6695 56.4069 18.8612C56.8155 19.0535 57.2843 19.1496 57.8137 19.1496C58.3305 19.1496 58.7966 19.0535 59.2117 18.8612C59.6261 18.6695 59.9752 18.3972 60.2574 18.0431C60.5399 17.6895 60.7568 17.267 60.9071 16.7752C61.0574 16.2835 61.1326 15.732 61.1326 15.1209C61.1326 14.5091 61.0574 13.9546 60.9071 13.4569C60.7568 12.9595 60.5399 12.5342 60.2574 12.1802C59.9752 11.8266 59.6261 11.5535 59.2117 11.3621C58.7966 11.1702 58.3305 11.0744 57.8137 11.0744C57.2843 11.0744 56.8155 11.1732 56.4069 11.3709C55.9978 11.5688 55.6518 11.8447 55.3698 12.1985C55.0871 12.5521 54.8704 12.9776 54.7201 13.475C54.5698 13.9729 54.4949 14.5214 54.4949 15.1209ZM64.0369 15.1209C64.0369 16.1877 63.8773 17.1262 63.5593 17.935C63.2402 18.7445 62.8041 19.4219 62.2513 19.9672C61.6982 20.5131 61.0397 20.9235 60.2762 21.1991C59.5128 21.4753 58.6918 21.6131 57.8144 21.6131C56.9604 21.6131 56.1551 21.4753 55.3974 21.1991C54.6398 20.9235 53.9782 20.5131 53.4133 19.9672C52.8478 19.4219 52.4034 18.7445 52.0786 17.935C51.754 17.1262 51.5913 16.1877 51.5913 15.1209C51.5913 14.0537 51.7598 13.1154 52.0965 12.3064C52.4329 11.4969 52.8872 10.8164 53.4584 10.2649C54.0292 9.71341 54.6907 9.29998 55.4426 9.02411C56.1937 8.74799 56.9846 8.60993 57.8144 8.60993C58.6679 8.60993 59.4734 8.74799 60.2313 9.02411C60.9887 9.29998 61.65 9.71341 62.2152 10.2649C62.7802 10.8164 63.2253 11.4969 63.5499 12.3064C63.8748 13.1154 64.0369 14.0537 64.0369 15.1209Z" />
        <path d="M71.1123 19.2212C71.5091 19.2212 71.8367 19.1885 72.0952 19.1221C72.3537 19.0565 72.5613 18.9667 72.7174 18.852C72.8735 18.7386 72.982 18.6038 73.0423 18.4479C73.1025 18.2922 73.1326 18.1182 73.1326 17.9263C73.1326 17.5189 72.9399 17.1797 72.5552 16.9104C72.1704 16.6403 71.5091 16.3498 70.5713 16.0375C70.1623 15.8942 69.7534 15.7289 69.3446 15.5433C68.9358 15.3578 68.569 15.1239 68.2444 14.842C67.9201 14.5603 67.6553 14.2186 67.451 13.8164C67.2464 13.4151 67.1443 12.9267 67.1443 12.3511C67.1443 11.7755 67.2525 11.2569 67.4689 10.7954C67.6855 10.3337 67.992 9.94143 68.389 9.61728C68.7857 9.29338 69.2664 9.04517 69.8316 8.87089C70.3968 8.69737 71.0339 8.60986 71.7436 8.60986C72.5853 8.60986 73.3129 8.70039 73.9263 8.87995C74.5391 9.05975 75.0443 9.25792 75.441 9.47368L74.6297 11.6857C74.2806 11.5059 73.8927 11.3469 73.4662 11.2089C73.0392 11.0713 72.5252 11.0019 71.9242 11.0019C71.2506 11.0019 70.7666 11.0955 70.472 11.2811C70.1774 11.4669 70.0298 11.7518 70.0298 12.1351C70.0298 12.3632 70.0843 12.5553 70.1925 12.7107C70.3005 12.8666 70.4541 13.0074 70.6523 13.1334C70.8508 13.2592 71.0793 13.3733 71.3381 13.4749C71.5961 13.577 71.8818 13.6817 72.1948 13.7895C72.8438 14.0297 73.409 14.2663 73.8902 14.5002C74.3709 14.7341 74.7709 15.0069 75.0897 15.3185C75.408 15.6301 75.6456 15.996 75.8022 16.4157C75.9581 16.8357 76.0365 17.3449 76.0365 17.9439C76.0365 19.107 75.6274 20.0093 74.8098 20.6506C73.9921 21.2924 72.7595 21.6133 71.1123 21.6133C70.5592 21.6133 70.0601 21.5801 69.6152 21.5142C69.1703 21.4478 68.7766 21.3671 68.4339 21.2712C68.0913 21.1754 67.7965 21.0736 67.5498 20.9657C67.3034 20.8576 67.0961 20.756 66.9276 20.6597L67.7216 18.4298C68.0939 18.634 68.5539 18.8166 69.1015 18.978C69.6483 19.1402 70.3189 19.2212 71.1123 19.2212Z" />
        <path d="M88.4327 8.89829V11.2903H84.6629V21.3613H81.8492V11.2903H78.0792V8.89829H88.4327Z" />
        <path d="M91.5579 21.3616H94.3718V8.89834H91.5579V21.3616Z" />
        <path d="M106.967 21.3613C106.162 19.9347 105.29 18.5261 104.352 17.135C103.414 15.744 102.416 14.4313 101.358 13.1963V21.3613H98.58V8.89832H100.871C101.267 9.29364 101.706 9.77925 102.187 10.3549C102.668 10.9305 103.158 11.5451 103.657 12.1985C104.156 12.8518 104.652 13.5293 105.145 14.2304C105.638 14.9318 106.101 15.606 106.534 16.2535V8.89832H109.33V21.3613H106.967Z" />
        <path d="M119.634 11.0564C118.324 11.0564 117.376 11.419 116.793 12.1443C116.21 12.8698 115.919 13.8616 115.919 15.121C115.919 15.7319 115.99 16.2869 116.135 16.7843C116.279 17.2815 116.496 17.71 116.784 18.0699C117.073 18.4297 117.433 18.7086 117.866 18.9065C118.299 19.1042 118.804 19.203 119.381 19.203C119.694 19.203 119.962 19.197 120.184 19.1852C120.406 19.1733 120.602 19.1495 120.77 19.1132V14.7793H123.584V20.9478C123.247 21.0798 122.706 21.2204 121.961 21.37C121.215 21.5196 120.295 21.5951 119.201 21.5951C118.263 21.5951 117.412 21.451 116.649 21.1635C115.885 20.8753 115.233 20.4561 114.692 19.9044C114.151 19.3531 113.733 18.6754 113.438 17.8722C113.143 17.0695 112.996 16.1521 112.996 15.121C112.996 14.0777 113.159 13.1545 113.484 12.351C113.808 11.548 114.252 10.867 114.818 10.3098C115.383 9.75224 116.047 9.32976 116.811 9.04207C117.575 8.75413 118.389 8.60978 119.255 8.60978C119.844 8.60978 120.376 8.64926 120.851 8.72697C121.326 8.80518 121.735 8.89496 122.078 8.99706C122.421 9.09865 122.703 9.20352 122.926 9.31165C123.148 9.41954 123.307 9.50378 123.404 9.56364L122.592 11.8113C122.207 11.6076 121.765 11.4311 121.266 11.281C120.767 11.1311 120.223 11.0564 119.634 11.0564Z" />
        <path d="M127.521 21.3613V8.89832H135.963V11.2542H130.335V13.6998H135.331V16.0021H130.335V19.0055H136.378V21.3613H127.521Z" />
        <path d="M143.596 11.1462C143.392 11.1462 143.209 11.1522 143.046 11.164C142.884 11.1764 142.731 11.1884 142.586 11.2V14.5809H143.38C144.438 14.5809 145.195 14.4496 145.652 14.1855C146.109 13.9223 146.337 13.4724 146.337 12.8366C146.337 12.225 146.106 11.791 145.643 11.5325C145.18 11.2752 144.498 11.1462 143.596 11.1462ZM143.435 8.75414C145.311 8.75414 146.748 9.08659 147.746 9.75225C148.744 10.4177 149.243 11.4517 149.243 12.8547C149.243 13.7296 149.042 14.4405 148.639 14.986C148.236 15.5312 147.656 15.9602 146.898 16.2716C147.151 16.5836 147.415 16.9402 147.692 17.3418C147.968 17.7437 148.242 18.1634 148.513 18.601C148.783 19.0386 149.045 19.494 149.297 19.9673C149.549 20.4413 149.784 20.9058 150 21.3612H146.855C146.625 20.9536 146.393 20.5401 146.158 20.1204C145.922 19.701 145.681 19.2931 145.434 18.8972C145.187 18.5014 144.941 18.1272 144.701 17.7736C144.459 17.4195 144.217 17.0989 143.976 16.8107H142.587V21.3612H139.774V9.07754C140.387 8.95834 141.021 8.87384 141.676 8.82631C142.332 8.77803 142.918 8.75414 143.435 8.75414Z" />
        <path d="M0.000249566 14.046V0.000497794L7.08916 3.78046V10.1086L16.4735 10.1132L23.6774 14.046H0.000249566ZM18.3925 8.95058V0L25.6725 3.6859V13.1797L18.3925 8.95058ZM18.3924 26.1177V19.8441L8.93577 19.8375C8.9446 19.8793 1.6123 15.8418 1.6123 15.8418L25.6725 15.9547V30L18.3924 26.1177ZM0 26.1177L0.000252212 16.9393L7.08916 21.0683V29.8033L0 26.1177Z" />
    </symbol>
    <symbol id="questionmark_icon" viewBox="0 0 16 16">
        <path d="M7.02 6.487c0-.541.44-.98.98-.98h.128c.47 0 .851.382.851.852a.735.735 0 0 1-.054.265.492.492 0 0 1-.052.097.158.158 0 0 1-.026.03l-.59.442C7.69 7.62 7.25 8.24 7.25 9.081a.75.75 0 0 0 1.5 0c0-.247.106-.461.408-.688l.589-.442c.533-.4.732-1.093.732-1.592a2.351 2.351 0 0 0-2.35-2.352H8a2.48 2.48 0 0 0-2.48 2.48.75.75 0 0 0 1.5 0ZM7.992 10.493a.75.75 0 0 0 0 1.5H8a.75.75 0 0 0 0-1.5h-.008Z"></path>
        <path fill-rule="evenodd" d="M15 8A7 7 0 1 1 1 8a7 7 0 0 1 14 0Zm-1.5 0a5.5 5.5 0 1 1-11 0 5.5 5.5 0 0 1 11 0Z" clip-rule="evenodd"></path>
    </symbol>
    <symbol id="stocks_icon" viewBox="0 0 24 24">
        <path d="M2.625 3.875a1 1 0 0 1 1 1v13.5a2 2 0 0 0 2 2h15.75a1 1 0 1 1 0 2H5.625a4 4 0 0 1-4-4v-13.5a1 1 0 0 1 1-1Z"></path>
        <path d="M20.75 9.164v2.086a1 1 0 1 0 2 0v-4.5a1 1 0 0 0-1-1h-4.5a1 1 0 1 0 0 2h2.086L15 12.086l-2.513-2.513a1.75 1.75 0 0 0-2.474 0l-3.97 3.97a1 1 0 1 0 1.414 1.414l3.793-3.793 2.513 2.513a1.75 1.75 0 0 0 2.474 0l4.513-4.513Z"></path>
    </symbol>
    <symbol id="warranty_icon" viewBox="0 0 16 16">
        <path d="M10.838 6.518a.761.761 0 0 0 0-1.075.756.756 0 0 0-1.072 0L7.471 7.745 6.456 6.727a.756.756 0 0 0-1.071 0 .761.761 0 0 0 0 1.075l1.547 1.552.003.003a.756.756 0 0 0 1.072 0l2.83-2.84Z"></path>
        <path fill-rule="evenodd" d="M1.003 4.4A2.027 2.027 0 0 1 2.17 2.45L7.019.19A2.016 2.016 0 0 1 8.694.176l5.108 2.285a2.027 2.027 0 0 1 1.195 1.963l-.006.105c-.228 4.116-2.06 8.252-5.766 10.035-.556.268-1.039.436-1.372.436-.338 0-.817-.174-1.363-.448-3.548-1.783-5.246-5.805-5.466-9.779l-.02-.372Zm12.48-.06-.005.105c-.211 3.806-1.888 7.295-4.909 8.749-.24.116-.435.195-.582.243-.063.02-.106.032-.132.037a1.394 1.394 0 0 1-.122-.036 4.553 4.553 0 0 1-.564-.245C4.299 11.751 2.74 8.375 2.537 4.69l-.02-.373a.507.507 0 0 1 .29-.487l4.85-2.262a.504.504 0 0 1 .42-.003l5.108 2.285c.191.085.31.28.299.49Z" clip-rule="evenodd"></path>
    </symbol>
    <symbol id="list_icon" viewBox="0 0 24 24">
        <path d="M4.875 3.875a1 1 0 0 0 0 2h.015a1 1 0 1 0 0-2h-.015ZM8.625 3.875a1 1 0 1 0 0 2h10.5a1 1 0 1 0 0-2h-10.5ZM8.625 11a1 1 0 1 0 0 2h10.5a1 1 0 1 0 0-2h-10.5ZM7.625 19.125a1 1 0 0 1 1-1h10.5a1 1 0 1 1 0 2h-10.5a1 1 0 0 1-1-1ZM3.875 12a1 1 0 0 1 1-1h.015a1 1 0 1 1 0 2h-.015a1 1 0 0 1-1-1ZM4.875 18.125a1 1 0 1 0 0 2h.015a1 1 0 1 0 0-2h-.015Z"></path>
    </symbol>
    <symbol id="" viewBox="0 0 24 24">
        
    </symbol>
    <symbol id="thunder_icon" viewBox="0 0 24 24">
        <path fill-rule="evenodd" d="M14.089 2.023c.763-.67 1.89-.73 2.717-.12a2.199 2.199 0 0 1 .727 2.602L15.57 9.814h2.303c.917 0 1.722.575 2.038 1.42.318.85.074 1.81-.598 2.409l-.002.001-9.396 8.33-.003.003c-.763.67-1.89.73-2.718.12a2.199 2.199 0 0 1-.73-2.593l1.865-5.314h-2.2a2.185 2.185 0 0 1-2.038-1.423 2.201 2.201 0 0 1 .598-2.41l.002-.002 9.399-8.332Zm1.32 1.502-9.39 8.325a.203.203 0 0 0-.056.216c.03.082.105.124.165.124h3.6c.694 0 1.18.686.95 1.341L8.33 20.222l-.012.03a.199.199 0 0 0 .062.235c.06.045.144.045.21-.012l9.391-8.325a.202.202 0 0 0 .055-.216.178.178 0 0 0-.164-.12h-3.729c-.702 0-1.188-.7-.945-1.357l2.475-6.687.009-.022a.2.2 0 0 0-.062-.235.165.165 0 0 0-.21.012Z" clip-rule="evenodd"></path>
    </symbol>
    <symbol id="checkmark2_icon" viewBox="0 0 24 24">
        <path d="M16.338 10.67a1 1 0 0 0-1.414-1.414l-3.903 3.903-1.668-1.668a1 1 0 0 0-1.414 1.414l2.143 2.143a1.327 1.327 0 0 0 1.878 0l4.378-4.378Z"></path>
        <path fill-rule="evenodd" d="M12 1.5C6.201 1.5 1.5 6.201 1.5 12S6.201 22.5 12 22.5 22.5 17.799 22.5 12 17.799 1.5 12 1.5ZM3.5 12a8.5 8.5 0 1 1 17 0 8.5 8.5 0 0 1-17 0Z" clip-rule="evenodd"></path>
    </symbol>
    <symbol id="linkedin_icon" viewBox="0 0 24 25">
        <path fill-rule="evenodd" d="M7.498 1.993a6 6 0 0 0-6 6v9a6 6 0 0 0 6 6h9a6 6 0 0 0 6-6v-9a6 6 0 0 0-6-6h-9Zm-.457 7.109c.715 0 1.294-.584 1.294-1.305a1.3 1.3 0 0 0-1.294-1.304 1.3 1.3 0 0 0-1.294 1.304c0 .721.58 1.305 1.294 1.305Zm-1.304 9.392v-8.349h2.608v8.349H5.737Zm4.181-8.349h2.592v1.125c1.094-2.024 5.749-2.174 5.749 1.938v5.286h-2.603V14.11c0-2.636-3.145-2.436-3.145 0v4.383H9.918v-8.349Z" clip-rule="evenodd"></path>
    </symbol>
    <symbol id="facebook_icon" viewBox="0 0 24 25">
        <path fill-rule="evenodd" d="M7.498 2.13a6 6 0 0 0-6 6v9a6 6 0 0 0 6 6h9a6 6 0 0 0 6-6v-9a6 6 0 0 0-6-6h-9Zm.803 8.238h1.696V8.454c0-1.714.902-2.61 2.936-2.61h2.153v2.828h-1.631c-.522 0-.63.214-.63.754v.942h2.26l-.202 2.262h-2.059v6.785H9.997V12.63H8.301v-2.262Z" clip-rule="evenodd"></path>
    </symbol>
    <symbol id="instagram_icon" viewBox="0 0 24 25">
        <path d="M7.612 13.707a4.125 4.125 0 1 1 8.25 0 4.125 4.125 0 0 1-8.25 0Z"></path>
        <path fill-rule="evenodd" d="M7.498 2.457a6 6 0 0 0-6 6v9a6 6 0 0 0 6 6h9a6 6 0 0 0 6-6v-9a6 6 0 0 0-6-6h-9Zm10.539 5.7a1.5 1.5 0 1 0 0-3 1.5 1.5 0 0 0 0 3Zm-6.3-.825a6.375 6.375 0 1 0 0 12.75 6.375 6.375 0 0 0 0-12.75Z" clip-rule="evenodd"></path>
    </symbol>
    <symbol id="xapp_icon" viewBox="0 0 24 25">
        <path d="M16.21 17.726h-1.123l-7.33-9.627h1.205l7.248 9.627Z"></path>
        <path fill-rule="evenodd" d="M7.498 2.444a6 6 0 0 0-6 6v9a6 6 0 0 0 6 6h9a6 6 0 0 0 6-6v-9a6 6 0 0 0-6-6h-9Zm10.326 4.5h-2.026l-3.34 3.834-2.886-3.834H5.39l4.995 6.563-4.734 5.437h2.027l3.655-4.195 3.193 4.195h4.078l-5.207-6.917 4.426-5.083Z" clip-rule="evenodd"></path>
    </symbol>
    <symbol id="youtube_icon" viewBox="0 0 24 25">
        <path d="m14.33 12.174-3.783-2.228v4.447l3.782-2.22Z"></path>
        <path fill-rule="evenodd" d="M7.498 1.67a6 6 0 0 0-6 6v9a6 6 0 0 0 6 6h9a6 6 0 0 0 6-6v-9a6 6 0 0 0-6-6h-9Zm-1.19 5.608c1.14-.303 5.685-.303 5.685-.303s4.555 0 5.696.321c.62.165 1.114.67 1.275 1.302.315 1.164.306 3.585.306 3.585s0 2.412-.306 3.567a1.827 1.827 0 0 1-1.275 1.31c-1.141.303-5.696.303-5.696.303s-4.536 0-5.686-.311a1.87 1.87 0 0 1-1.284-1.311c-.297-1.146-.297-3.567-.297-3.567s0-2.412.297-3.576a1.9 1.9 0 0 1 1.284-1.32Z" clip-rule="evenodd"></path>
    </symbol>
    <symbol id="menu_icon" viewBox="0 0 24 24">
        <path d="M3.875 4.875a1 1 0 0 1 1-1h14.25a1 1 0 1 1 0 2H4.875a1 1 0 0 1-1-1ZM3.875 12a1 1 0 0 1 1-1h14.25a1 1 0 0 1 0 2H4.875a1 1 0 0 1-1-1ZM4.875 18.125a1 1 0 1 0 0 2h14.25a1 1 0 1 0 0-2H4.875Z"></path>
    </symbol>
</svg>